<svg version="1" xmlns="http://www.w3.org/2000/svg" width="682.667" height="682.667" viewBox="0 0 512.000000 512.000000"><path d="M222 30.5c-32.6 4.7-59.3 16.7-84.7 37.8-42.7 35.6-66.4 95.1-60.2 151.5 3.2 29.6 12.7 56.2 28.3 79.7 29.2 43.8 72.9 70 124.3 74.7 35.3 3.2 72.9-6.5 102.7-26.5l7.9-5.3 8.6 9.1c53.4 56.5 95.1 99.4 98.4 101.3 9.4 5.2 20.8.1 23.6-10.6 1.1-4.1.1-10.2-2.1-13-.7-.9-24.4-25.9-52.6-55.4l-51.3-53.7 6-7.3c12.3-15.1 23.1-34.8 29.4-53.8 25.3-76.1-2.1-158.7-67.3-202.5-17.3-11.6-41.6-21.4-62.5-25.1-12.5-2.2-36.7-2.7-48.5-.9zm41.5 20C333.6 61 386.2 121.2 389.7 195c2.9 60.6-30.1 118.2-83 144.6-12 6.1-22.1 9.7-35.5 12.6-13.9 3.1-42.3 3.1-56.4 0-18.8-4.1-34.4-10.5-49.3-20.2-49.7-32.4-76-91.1-68-151.3 11.1-83.5 86-142.2 166-130.2z"/><path d="M221.5 118c-22.8 3-39.1 12.4-46.3 26.6-5.1 10.1-5.4 13.6-5 65.4.3 46.7.3 47.6 2.6 53.1 3.4 8.6 8 14.8 14.3 19.4 11.6 8.6 25.6 12.3 48.9 13.1 39 1.4 62.9-8.9 71.1-30.6 2.3-6 3.9-21.7 2.8-27.1-1.2-5.5-2.6-5.9-19.5-5.9-20.8 0-20.7 0-21.8 12.3-.5 6.5-3.6 11.6-8.6 14.2-4.2 2.2-16.6 3.8-23.4 3.1-13.2-1.4-19.4-5.3-21.6-13.6-.6-2.2-.9-10.1-.8-17.7l.3-13.8 47.3-.5c40.6-.4 47.4-.7 48.2-2 .6-.8 1-13.1 1-28 0-20.7-.3-27.9-1.5-32.5-5.2-19.7-20.3-31.1-46.4-35-10.1-1.6-31.5-1.8-41.6-.5zm34.6 35.1c9.8 3.4 12.8 8.9 12.9 23.1v9.8h-55v-9.3c.1-16.6 4.2-22.2 17.9-24.7 5.7-1.1 19.6-.4 24.2 1.1z"/></svg>